<svg width="48" height="48" viewBox="0 0 48 48" fill="none" xmlns="http://www.w3.org/2000/svg">
<path d="M21.1744 26.7103C23.032 27.1236 24.9563 27.1367 26.8193 26.7487C27.8054 23.5881 28.3208 20.2995 28.3489 16.9887C28.3489 11.7151 26.6017 8.16949 24.0032 8.16309H23.9904C21.3984 8.16949 19.6512 11.7151 19.6512 16.9887C19.6781 20.2865 20.1914 23.5623 21.1744 26.7103Z" fill="#CCB800"/>
<path d="M18.6912 16.9888C18.6912 13.1552 19.5488 10.192 21.0208 8.56641C16.784 9.75041 13.9424 13.4688 13.9424 18.2688C13.9664 20.1833 14.3417 22.0771 15.0496 23.856C16.5539 25.0119 18.2564 25.8837 20.0736 26.4288C19.1868 23.3594 18.7217 20.1836 18.6912 16.9888Z" fill="#CCB800"/>
<path d="M20.3809 27.5233C18.7863 27.122 17.261 26.4834 15.8561 25.6289C16.6535 27.1813 17.7315 28.5727 19.0356 29.7326L20.1876 34.1486H19.1444C19.0214 34.155 18.9055 34.2083 18.8207 34.2976C18.7359 34.3869 18.6886 34.5054 18.6886 34.6286C18.6886 34.7518 18.7359 34.8703 18.8207 34.9596C18.9055 35.0489 19.0214 35.1022 19.1444 35.1086H28.8545C28.9775 35.1022 29.0934 35.0489 29.1782 34.9596C29.263 34.8703 29.3103 34.7518 29.3103 34.6286C29.3103 34.5054 29.263 34.3869 29.1782 34.2976C29.0934 34.2083 28.9775 34.155 28.8545 34.1486H27.8106L28.9627 29.7326C30.2261 28.6136 31.2768 27.2753 32.0641 25.7825C30.6843 26.5874 29.1945 27.1868 27.6417 27.5617C25.2757 28.2999 22.739 28.2865 20.3809 27.5233ZM26.8193 34.146H21.1841L20.267 30.6414C21.3712 31.3832 22.6714 31.7793 24.0017 31.7793C25.332 31.7793 26.6321 31.3832 27.7364 30.6414L26.8193 34.146Z" fill="#CCB800"/>
<path d="M26.9727 8.56006C28.4447 10.1857 29.3087 13.1489 29.3087 16.9889C29.2785 20.204 28.8069 23.3997 27.9071 26.4865C29.6959 25.9763 31.3782 25.1481 32.8735 24.0417C33.6283 22.2092 34.03 20.2505 34.0575 18.2689C34.0575 13.4625 31.2095 9.74406 26.9727 8.56006Z" fill="#CCB800"/>
<path d="M19.8817 38.2496C19.8817 38.6706 20.0489 39.0743 20.3466 39.3719C20.6443 39.6696 21.048 39.8368 21.4689 39.8368H26.5313C26.9523 39.8368 27.356 39.6696 27.6536 39.3719C27.9513 39.0743 28.1185 38.6706 28.1185 38.2496V35.9392H19.8817V38.2496Z" fill="#CCB800"/>
</svg>
