<svg width="295" height="397" viewBox="0 0 295 397" fill="none" xmlns="http://www.w3.org/2000/svg">
<path d="M429.852 396.956H22.1262C14.2664 396.956 7.0038 392.762 3.07401 385.956C-0.855774 379.149 -0.855722 370.763 3.07415 363.956L206.926 11.9558C210.859 5.16028 218.116 0.97583 225.967 0.97583C233.819 0.97583 241.075 5.16028 245.008 11.9558L448.86 363.956C452.788 370.759 452.79 379.141 448.866 385.946C444.941 392.751 437.686 396.948 429.83 396.956H429.852ZM204 286.956V330.956H224.526H225.956H227.386H247.956V286.956H204ZM204 132.956V242.956H248V132.956H204Z" fill="#F15C2F"/>
</svg>
