<svg width="48" height="48" viewBox="0 0 48 48" fill="none" xmlns="http://www.w3.org/2000/svg">
<path d="M23.9999 10.5023C25.7132 10.4973 27.4044 10.8894 28.9407 11.6479C29.0162 11.2884 29.0142 10.9169 28.9347 10.5582C28.8552 10.1995 28.7002 9.86191 28.4799 9.56791C27.7183 8.69111 26.0479 8.15991 24.0127 8.15991H23.9999C22.4255 8.15991 20.4159 8.53111 19.5135 9.56791C19.2921 9.86258 19.1364 10.2013 19.0569 10.5612C18.9774 10.9211 18.976 11.2938 19.0527 11.6543C20.5897 10.8908 22.2837 10.4964 23.9999 10.5023Z" fill="#1CBC00"/>
<path d="M11.6734 36.3457L12.499 26.6433L11.1742 27.5201C10.9475 27.6741 10.7584 27.8772 10.6211 28.1143C10.4837 28.3514 10.4015 28.6165 10.3806 28.8897L9.87502 35.7121C9.85528 35.9616 9.88751 36.2125 9.96967 36.4488C10.0518 36.6852 10.1821 36.902 10.3524 37.0855C10.5226 37.2689 10.729 37.4151 10.9586 37.5147C11.1882 37.6143 11.436 37.6651 11.6862 37.6641H11.7758C11.668 37.2335 11.6334 36.7878 11.6734 36.3457Z" fill="#1CBC00"/>
<path d="M37.6192 28.8897C37.5984 28.6157 37.5156 28.35 37.377 28.1127C37.2384 27.8754 37.0477 27.6728 36.8192 27.5201L35.5072 26.6433L36.3328 36.3457C36.3717 36.7885 36.3328 37.2347 36.2176 37.6641H36.3136C36.5639 37.6651 36.8116 37.6143 37.0412 37.5147C37.2708 37.4151 37.4772 37.2689 37.6474 37.0855C37.8177 36.902 37.948 36.6852 38.0301 36.4488C38.1123 36.2125 38.1445 35.9616 38.1248 35.7121L37.6192 28.8897Z" fill="#1CBC00"/>
<path d="M29.0279 29.5874H18.9696C18.8423 29.5874 18.7202 29.638 18.6302 29.728C18.5402 29.818 18.4896 29.9401 18.4896 30.0674C18.4896 30.1947 18.5402 30.3168 18.6302 30.4068C18.7202 30.4968 18.8423 30.5474 18.9696 30.5474H19.4298V31.7538C19.4298 31.8811 19.4804 32.0032 19.5704 32.0932C19.6604 32.1832 19.7825 32.2338 19.9098 32.2338C20.0371 32.2338 20.1592 32.1832 20.2492 32.0932C20.3392 32.0032 20.3898 31.8811 20.3898 31.7538V30.5474H29.0298C29.1571 30.5474 29.2792 30.4968 29.3692 30.4068C29.4592 30.3168 29.5098 30.1947 29.5098 30.0674C29.5098 29.9401 29.4592 29.818 29.3692 29.728C29.2792 29.638 29.1571 29.5874 29.0298 29.5874H29.0279Z" fill="#1CBC00"/>
<path d="M23.9998 11.3344C21.4428 11.3208 18.9751 12.2743 17.0915 14.0036C15.2079 15.7329 14.0475 18.1103 13.843 20.6592L12.499 36.416C12.4623 36.8512 12.5162 37.2893 12.6574 37.7026C12.7986 38.1159 13.0239 38.4954 13.3192 38.8172C13.6145 39.1389 13.9734 39.396 14.3731 39.572C14.7728 39.7481 15.2046 39.8393 15.6414 39.84H32.3518C32.7891 39.8402 33.2216 39.7496 33.6221 39.5739C34.0225 39.3983 34.3821 39.1414 34.6782 38.8195C34.9742 38.4976 35.2001 38.1178 35.3417 37.7041C35.4832 37.2903 35.5373 36.8517 35.5006 36.416L34.1566 20.6592C33.952 18.1103 32.7917 15.7329 30.908 14.0036C29.0244 12.2743 26.5568 11.3208 23.9998 11.3344ZM19.0142 18.1696C19.0149 17.6894 19.2059 17.2291 19.5454 16.8896C19.8849 16.5501 20.3452 16.359 20.8254 16.3584H27.1742C27.4116 16.3588 27.6466 16.406 27.8658 16.4972C28.085 16.5885 28.2841 16.722 28.4517 16.8902C28.6193 17.0584 28.7521 17.2579 28.8426 17.4774C28.933 17.697 28.9794 17.9321 28.979 18.1696V20.192C28.9794 20.4294 28.933 20.6646 28.8426 20.8841C28.7521 21.1036 28.6193 21.3032 28.4517 21.4714C28.2841 21.6395 28.085 21.7731 27.8658 21.8643C27.6466 21.9556 27.4116 22.0028 27.1742 22.0032H20.8254C20.3452 22.0025 19.8849 21.8115 19.5454 21.4719C19.2059 21.1324 19.0149 20.6721 19.0142 20.192V18.1696ZM31.315 34.9888C31.3151 35.2351 31.2668 35.479 31.1726 35.7066C31.0784 35.9342 30.9403 36.141 30.7661 36.3151C30.592 36.4893 30.3852 36.6274 30.1576 36.7216C29.93 36.8158 29.6861 36.8641 29.4398 36.864H18.5598C18.0616 36.8647 17.5836 36.6675 17.2308 36.3159C16.878 35.9642 16.6792 35.4869 16.6782 34.9888V29.3696C16.6804 28.8718 16.8795 28.3951 17.2321 28.0438C17.5847 27.6924 18.062 27.4949 18.5598 27.4944H29.4398C29.9369 27.495 30.4135 27.6928 30.765 28.0444C31.1165 28.3959 31.3143 28.8724 31.315 29.3696V34.9888Z" fill="#1CBC00"/>
</svg>
