<svg width="48" height="48" viewBox="0 0 48 48" fill="none" xmlns="http://www.w3.org/2000/svg">
<path d="M13.7549 33.5603C13.7561 33.8666 13.8787 34.1599 14.0959 34.3758C14.313 34.5918 14.607 34.7128 14.9133 34.7123H17.0067C17.313 34.7128 17.607 34.5918 17.8241 34.3758C18.0413 34.1599 18.1639 33.8666 18.1651 33.5603V31.9053H13.7549V33.5603Z" fill="#00B0FC"/>
<path d="M29.9026 33.5603C29.9048 33.8661 30.0277 34.1588 30.2445 34.3745C30.4613 34.5902 30.7545 34.7116 31.0604 34.7123H33.1519C33.4583 34.7128 33.7523 34.5918 33.9696 34.3759C34.1868 34.1599 34.3096 33.8666 34.311 33.5603V31.9053H29.9014L29.9026 33.5603Z" fill="#00B0FC"/>
<path d="M31.9499 14.67C31.7761 14.4011 31.547 14.1725 31.2778 13.9992C31.0086 13.8259 30.7056 13.712 30.3889 13.6652C28.4398 13.4198 26.4775 13.2937 24.5131 13.2876V21.0956H35.0801C34.2911 18.8389 33.2405 16.6823 31.9499 14.67Z" fill="#00B0FC"/>
<path d="M23.5521 13.2876C21.588 13.2939 19.6262 13.42 17.6775 13.6652C17.3619 13.7129 17.06 13.8271 16.7918 14.0003C16.5237 14.1736 16.2955 14.4018 16.1223 14.67C14.8774 16.6908 13.8662 18.8465 13.1079 21.0956H23.5521V13.2876Z" fill="#00B0FC"/>
<path d="M38.7481 20.8352H37.2569C36.9814 20.8362 36.7174 20.9461 36.5226 21.1409C36.3278 21.3358 36.2179 21.5997 36.2169 21.8752V22.4589H35.8745C35.7817 22.3072 35.6902 22.1683 35.605 22.0557H12.5586C12.4678 22.169 12.3705 22.3072 12.2719 22.4589H11.783V21.8752C11.782 21.5997 11.6721 21.3358 11.4772 21.1409C11.2824 20.9461 11.0185 20.8362 10.743 20.8352H9.25176C8.97631 20.8362 8.71243 20.9461 8.51772 21.141C8.323 21.3358 8.21325 21.5997 8.2124 21.8752V22.2342C8.21325 22.5096 8.32302 22.7735 8.51776 22.9682C8.71249 23.163 8.97637 23.2728 9.25176 23.2736H11.1654H11.1737H11.8399C11.3378 24.4865 11.234 25.8276 11.5436 27.1034L11.838 29.7145C11.8796 30.0878 12.0574 30.4326 12.3374 30.683C12.6174 30.9333 12.9799 31.0716 13.3554 31.0713H34.7212C35.0965 31.0708 35.4586 30.9322 35.7384 30.682C36.0182 30.4318 36.1962 30.0875 36.2386 29.7145L36.5266 27.1482C36.8356 25.8612 36.7497 24.511 36.2802 23.2736H36.8262H36.8345H38.7481C39.0235 23.2728 39.2874 23.163 39.4821 22.9682C39.6768 22.7735 39.7866 22.5096 39.7874 22.2342V21.8752C39.7866 21.5997 39.6768 21.3358 39.4821 21.141C39.2874 20.9461 39.0235 20.8362 38.7481 20.8352ZM18.3634 26.5952L17.7676 27.76C17.6804 27.933 17.5468 28.0785 17.3819 28.1802C17.2169 28.2818 17.027 28.3358 16.8332 28.336H14.805C14.526 28.3345 14.2589 28.2225 14.0621 28.0247C13.8653 27.8268 13.7548 27.5591 13.7548 27.28V26.1216C13.7551 25.8432 13.8659 25.5763 14.0628 25.3796C14.2597 25.1828 14.5267 25.0722 14.805 25.072H17.429C17.608 25.0729 17.7837 25.1195 17.9396 25.2073C18.0955 25.295 18.2264 25.4212 18.32 25.5737C18.4135 25.7262 18.4666 25.9 18.4742 26.0788C18.4818 26.2575 18.4437 26.4353 18.3634 26.5952ZM26.5164 28.8608H21.5564C21.4291 28.8608 21.307 28.8102 21.217 28.7202C21.127 28.6302 21.0764 28.5081 21.0764 28.3808C21.0764 28.2535 21.127 28.1314 21.217 28.0414C21.307 27.9514 21.4291 27.9008 21.5564 27.9008H26.5164C26.6437 27.9008 26.7658 27.9514 26.8558 28.0414C26.9458 28.1314 26.9964 28.2535 26.9964 28.3808C26.9964 28.5081 26.9458 28.6302 26.8558 28.7202C26.7658 28.8102 26.6437 28.8608 26.5164 28.8608ZM26.5164 26.9984H21.5564C21.4291 26.9984 21.307 26.9478 21.217 26.8578C21.127 26.7678 21.0764 26.6457 21.0764 26.5184C21.0764 26.3911 21.127 26.269 21.217 26.179C21.307 26.089 21.4291 26.0384 21.5564 26.0384H26.5164C26.6437 26.0384 26.7658 26.089 26.8558 26.179C26.9458 26.269 26.9964 26.3911 26.9964 26.5184C26.9964 26.6457 26.9458 26.7678 26.8558 26.8578C26.7658 26.9478 26.6437 26.9984 26.5164 26.9984ZM34.3122 27.28C34.3128 27.4183 34.2861 27.5554 34.2337 27.6833C34.1812 27.8113 34.104 27.9277 34.0065 28.0257C33.909 28.1238 33.7931 28.2017 33.6655 28.255C33.5378 28.3082 33.4009 28.3357 33.2626 28.336H31.2319C31.0382 28.3357 30.8484 28.2818 30.6836 28.1801C30.5187 28.0784 30.3853 27.933 30.2982 27.76L29.7087 26.5952C29.6267 26.4354 29.5873 26.2572 29.5941 26.0778C29.601 25.8983 29.6539 25.7237 29.7479 25.5706C29.8418 25.4176 29.9736 25.2913 30.1305 25.204C30.2874 25.1167 30.4642 25.0712 30.6438 25.072H33.2614C33.3993 25.0716 33.536 25.0984 33.6635 25.151C33.7911 25.2036 33.9069 25.2809 34.0045 25.3785C34.102 25.476 34.1793 25.5919 34.2319 25.7194C34.2845 25.847 34.3114 25.9836 34.311 26.1216L34.3122 27.28Z" fill="#00B0FC"/>
</svg>
