<svg width="20" height="18" viewBox="0 0 20 18" fill="none" xmlns="http://www.w3.org/2000/svg">
<path d="M7.21643 2.71797C7.54002 2.71797 7.80237 2.45562 7.80237 2.13203V0.952148C7.80237 0.628555 7.54002 0.366211 7.21643 0.366211C6.89284 0.366211 6.63049 0.628555 6.63049 0.952148V2.13203C6.63049 2.45562 6.89284 2.71797 7.21643 2.71797Z" fill="#242B36"/>
<path d="M1.90076 4.86281L0.878926 4.27285C0.598653 4.11097 0.240293 4.20706 0.0785357 4.4873C-0.0832612 4.76757 0.0127544 5.12593 0.292989 5.28769L1.31482 5.87765C1.59443 6.03914 1.95307 5.9441 2.11522 5.6632C2.27701 5.38293 2.181 5.02457 1.90076 4.86281Z" fill="#242B36"/>
<path d="M1.31482 11.3391L0.292989 11.9291C0.0127544 12.0909 -0.0832612 12.4492 0.0785357 12.7295C0.241153 13.0111 0.60002 13.105 0.878926 12.9439L1.90076 12.354C2.181 12.1922 2.27701 11.8338 2.11522 11.5536C1.95342 11.2734 1.59514 11.1772 1.31482 11.3391Z" fill="#242B36"/>
<path d="M13.118 5.87765L14.1398 5.28769C14.4201 5.12589 14.5161 4.76757 14.3543 4.4873C14.1925 4.20706 13.8342 4.11097 13.5539 4.27285L12.5321 4.86281C12.2518 5.0246 12.1558 5.38292 12.3176 5.6632C12.4802 5.94484 12.8391 6.03874 13.118 5.87765Z" fill="#242B36"/>
<path d="M15.5822 9.44023C14.9114 7.78273 13.2844 6.6868 11.4945 6.69453C10.761 5.06137 9.11963 3.9209 7.21639 3.9209C4.6317 3.9209 2.52893 6.02371 2.52893 8.6084C2.52893 10.2666 3.39487 11.7259 4.69788 12.5595C3.30854 14.7543 4.88823 17.6318 7.48733 17.6318C16.7065 17.6222 16.2021 17.6554 16.3626 17.6056C18.4106 17.3746 19.9999 15.6377 19.9999 13.5303C19.9999 11.1238 17.9436 9.25527 15.5822 9.44023ZM3.70081 8.60844C3.70081 6.66992 5.27792 5.09281 7.21643 5.09281C8.52366 5.09281 9.66585 5.81039 10.2715 6.87199C8.42003 7.41453 7.13444 9.10488 7.11381 11.0443C6.53178 11.1081 5.98299 11.3256 5.51034 11.681C4.43202 11.0799 3.70081 9.92812 3.70081 8.60844ZM16.141 16.4499C15.9323 16.4669 10.6151 16.457 7.48733 16.46C5.55526 16.46 4.61374 14.0651 6.05127 12.7523C6.48276 12.3583 7.05733 12.1487 7.68342 12.2056C8.06112 12.2397 8.36889 11.9129 8.31674 11.5408C8.0451 9.60207 9.54639 7.86625 11.5077 7.86625C12.9587 7.86625 14.2375 8.84289 14.6176 10.2413C14.6988 10.5401 14.9985 10.7239 15.3016 10.6614C17.1279 10.2837 18.828 11.6798 18.828 13.5303C18.828 15.0442 17.6478 16.3267 16.141 16.4499Z" fill="#242B36"/>
</svg>
