<svg width="16" height="16" viewBox="0 0 16 16" fill="none" xmlns="http://www.w3.org/2000/svg">
<path d="M2.31125 0.8125C1.21133 0.8125 0.492188 1.53476 0.492188 2.48407C0.492188 3.41241 1.18991 4.15527 2.26904 4.15527H2.28992C3.41135 4.15527 4.10925 3.41241 4.10925 2.48407C4.08829 1.53476 3.41135 0.8125 2.31125 0.8125Z" fill="#5A6168"/>
<path d="M0.68219 5.47607H3.89771V15.1501H0.68219V5.47607Z" fill="#5A6168"/>
<path d="M11.7904 5.24902C10.0557 5.24902 8.89255 6.87903 8.89255 6.87903V5.47607H5.67694V15.1501H8.89236V9.74775C8.89236 9.45854 8.91333 9.16978 8.99829 8.96296C9.23074 8.38544 9.75973 7.78715 10.6481 7.78715C11.8116 7.78715 12.277 8.67429 12.277 9.9748V15.1501H15.4922V9.60319C15.4922 6.63175 13.9058 5.24902 11.7904 5.24902Z" fill="#5A6168"/>
</svg>
