<svg width="48" height="48" viewBox="0 0 48 48" fill="none" xmlns="http://www.w3.org/2000/svg">
<path d="M28.1248 35.7217C25.3776 36.2725 22.5323 36.0645 19.8944 35.1201L19.136 37.4081H28.6918L28.1248 35.7217Z" fill="#0019FC"/>
<path d="M27.9456 38.073H19.8816C19.3175 38.0738 18.7643 38.2282 18.2815 38.5199C17.7986 38.8115 17.4044 39.2292 17.1411 39.728H30.6816C30.4198 39.229 30.0265 38.811 29.5442 38.5193C29.062 38.2276 28.5092 38.0732 27.9456 38.073Z" fill="#0019FC"/>
<path d="M37.3791 29.8656L35.086 27.6692C36.1975 26.1113 36.9262 24.3133 37.2127 22.4212C37.1167 22.3828 37.0207 22.338 36.9439 22.306C36.6577 22.1957 36.3796 22.0653 36.1119 21.9156C36.0379 21.8644 35.9585 21.8215 35.8751 21.7876C35.7927 21.7785 35.7092 21.7895 35.6319 21.8196C35.4434 21.8759 35.2594 21.9465 35.0815 22.0308C34.6825 22.2412 34.2397 22.3552 33.7887 22.3636C33.452 22.3363 33.1215 22.2564 32.8095 22.1268L32.5983 22.05C32.0431 21.861 31.4543 21.7912 30.8703 21.8452C30.8311 21.8492 30.7924 21.8578 30.7551 21.8708C30.7486 21.906 30.7378 21.9404 30.7231 21.9732L29.9167 23.8676C29.8996 23.9051 29.8847 23.9435 29.8719 23.9828C29.8852 23.9905 29.898 23.9991 29.9103 24.0084C30.452 24.3464 30.8852 24.8329 31.1583 25.41C31.3456 26.0437 31.3049 26.7231 31.0431 27.33C30.9919 27.4707 30.9407 27.6051 30.8831 27.7395C30.7377 28.067 30.6324 28.4108 30.5695 28.7635C30.5613 29.629 30.7222 30.4878 31.0431 31.2915C31.6334 30.962 32.1955 30.5844 32.7238 30.1626L33.7273 31.1226C31.122 33.2696 27.8123 34.373 24.4398 34.2189C21.0673 34.0648 17.8721 32.6642 15.4735 30.2885C13.0748 27.9128 11.6436 24.7312 11.457 21.3603C11.2705 17.9895 12.342 14.6694 14.4639 12.0436L15.4482 13.0157C14.9223 13.6844 14.467 14.4056 14.0895 15.168C14.4031 15.392 14.8255 15.7248 14.8639 15.7632C15.0178 15.8958 15.1994 15.9922 15.3955 16.0454C15.5915 16.0986 15.7969 16.1071 15.9967 16.0704C16.1974 15.9999 16.4126 15.9806 16.6226 16.0141C16.8327 16.0476 17.0311 16.133 17.1999 16.2624C17.373 16.4483 17.4734 16.6903 17.4828 16.9441C17.4922 17.1979 17.41 17.4466 17.2511 17.6448C17.152 17.7747 17.0406 17.8948 16.9183 18.0032C16.0095 18.848 15.9071 19.1872 15.9839 19.3152C16.1427 19.6382 16.2279 19.9922 16.2335 20.352C16.2419 20.5232 16.2699 20.6928 16.3167 20.8576C16.4156 21.0978 16.5493 21.3221 16.7135 21.5232C17.0139 21.8702 17.219 22.2892 17.3087 22.7392C17.3333 23.3104 17.1616 23.8727 16.8223 24.3328C16.542 24.8475 16.1343 25.2816 15.6383 25.5936C15.2678 25.7285 14.8734 25.7851 14.4799 25.76C14.3135 25.76 14.1407 25.7536 13.9743 25.7472C14.421 26.7123 14.9934 27.614 15.6767 28.4288C15.8431 28.352 16.0223 28.2752 16.2015 28.192C16.7455 27.9424 17.2895 27.6992 17.4879 27.6032C18.1415 27.1879 18.9278 27.0348 19.6895 27.1744C19.7855 27.2 19.8815 27.232 19.9839 27.2704C20.0676 27.309 20.1557 27.337 20.2463 27.3536C20.2584 27.3588 20.2716 27.361 20.2847 27.36C20.2826 27.3064 20.2869 27.2527 20.2975 27.2C20.3381 26.9305 20.4576 26.679 20.641 26.4774C20.8244 26.2758 21.0634 26.133 21.3279 26.0672C21.7391 25.9704 22.1653 25.9551 22.5823 26.0224C23.027 26.0368 23.459 26.1742 23.8303 26.4192C24.1782 26.7293 24.4237 27.1377 24.5343 27.5904C24.5966 27.7878 24.6781 27.9785 24.7775 28.16C25.0323 28.4692 25.354 28.7165 25.7183 28.8832C26.141 29.0654 26.518 29.3389 26.8224 29.6842C27.1267 30.0294 27.3507 30.4378 27.4783 30.88L27.5679 31.0976C27.6127 31.2064 27.7087 31.4752 27.8175 31.7952C27.8751 31.9808 27.9711 32.2368 28.0543 32.48C28.786 32.3027 29.4979 32.0518 30.1791 31.7312C29.7834 30.7544 29.5938 29.7064 29.6223 28.6528C29.6858 28.2171 29.8108 27.7926 29.9935 27.392C30.0447 27.264 30.0959 27.136 30.1407 27.0144C30.3212 26.6174 30.364 26.1714 30.2623 25.7472C30.039 25.3523 29.7198 25.02 29.3343 24.7808C29.1767 24.6757 29.0506 24.5297 28.9695 24.3584C28.9189 24.2194 28.8978 24.0712 28.9077 23.9235C28.9176 23.7759 28.9583 23.6319 29.0271 23.5008L29.8335 21.6064C29.8934 21.404 30.0163 21.226 30.1844 21.0982C30.3524 20.9704 30.5569 20.8996 30.7679 20.896C31.4901 20.8277 32.2185 20.9128 32.9055 21.1456L33.1423 21.2288C33.3589 21.3214 33.5872 21.3838 33.8207 21.4144C34.1268 21.3868 34.4246 21.2999 34.6975 21.1584C34.9093 21.0588 35.1273 20.9733 35.3503 20.9024C35.5691 20.8234 35.8048 20.803 36.0339 20.8434C36.263 20.8839 36.4774 20.9836 36.6559 21.1328C36.7135 21.1648 37.0655 21.3184 37.3215 21.4272C37.3407 21.1456 37.3535 20.864 37.3535 20.5824C37.3564 18.5673 36.8571 16.5833 35.9007 14.8096C35.4079 15.0592 34.7295 15.328 34.0191 15.6032L33.6031 15.7696C32.5906 16.1807 31.5514 16.5228 30.4927 16.7936C30.253 16.862 30.0058 16.9007 29.7567 16.9088C29.6232 16.9094 29.49 16.8944 29.3599 16.864C28.8128 16.6675 28.3542 16.2816 28.0671 15.776C27.4745 14.9798 26.9823 14.1135 26.6015 13.1968L26.5503 13.0496C26.4976 12.8504 26.4062 12.6634 26.2815 12.4992C26.179 12.4196 26.0618 12.3611 25.9366 12.3271C25.8113 12.293 25.6806 12.2841 25.5519 12.3008V12.3584C25.5706 12.5899 25.5264 12.8221 25.4239 13.0304C25.3164 13.2116 25.1522 13.3524 24.9568 13.431C24.7613 13.5097 24.5454 13.5218 24.3423 13.4656C24.0775 13.3966 23.8322 13.2674 23.6255 13.088L22.5055 12.2368C22.0831 11.9168 21.5583 11.5712 21.1679 11.7248C21.0894 11.7578 21.0144 11.7986 20.9439 11.8464C20.7261 12.006 20.47 12.1054 20.2015 12.1344C19.9664 12.1403 19.7334 12.0878 19.5235 11.9818C19.3135 11.8757 19.1331 11.7192 18.9983 11.5264C18.8262 11.274 18.6864 11.0009 18.5823 10.7136C18.5311 10.5984 18.4671 10.4512 18.4031 10.3104C18.2393 10.4173 18.0831 10.5325 17.9225 10.6471L15.6639 8.40707C15.5722 8.31972 15.4501 8.27153 15.3234 8.27273C15.1968 8.27392 15.0756 8.32441 14.9855 8.41347L13.2511 10.1735C13.1627 10.2646 13.1138 10.387 13.115 10.514C13.1162 10.641 13.1674 10.7624 13.2575 10.8519L13.7778 11.3639C11.477 14.174 10.3073 17.7413 10.4974 21.3682C10.6876 24.995 12.224 28.4205 14.806 30.9746C17.3881 33.5286 20.8301 35.0276 24.4589 35.1782C28.0876 35.3287 31.642 34.1202 34.4268 31.7888L34.9663 32.3008C35.0576 32.3881 35.1793 32.4363 35.3055 32.4352C35.3686 32.4355 35.431 32.4231 35.4893 32.3989C35.5475 32.3748 35.6004 32.3392 35.6447 32.2944L37.3791 30.5408C37.4238 30.4964 37.4592 30.4435 37.4834 30.3853C37.5076 30.3271 37.52 30.2647 37.52 30.2016C37.52 30.1386 37.5076 30.0762 37.4834 30.018C37.4592 29.9598 37.4238 29.9069 37.3791 29.8624V29.8656ZM19.0079 19.568L19.0527 19.4912C19.0969 19.4089 19.1639 19.341 19.2456 19.2956C19.3272 19.2502 19.4203 19.2293 19.5135 19.2352C19.5711 19.2224 19.7119 19.056 19.7951 18.9536C19.9694 18.7086 20.1998 18.5089 20.4671 18.3712C20.7427 18.2675 21.0408 18.2388 21.3311 18.288C21.4654 18.316 21.6047 18.3071 21.7343 18.2624C21.8471 18.1682 21.9406 18.053 22.0095 17.9232C22.1467 17.6834 22.3268 17.4708 22.5407 17.296C23.9487 16.2784 24.9023 16.496 25.4591 16.8672C25.7609 17.087 26.0135 17.3672 26.2009 17.6901C26.3882 18.013 26.5061 18.3714 26.5471 18.7424C26.608 19.0806 26.5419 19.4293 26.3615 19.7216C26.2219 19.8896 26.0467 20.0244 25.8486 20.1163C25.6504 20.2082 25.4343 20.2548 25.2159 20.2528L25.0623 20.2656C24.5542 20.3877 24.0697 20.5932 23.6287 20.8736C23.5071 20.944 23.3791 21.0144 23.2575 21.0848C22.7056 21.419 22.0782 21.6083 21.4335 21.6352C21.2326 21.6357 21.0325 21.6099 20.8383 21.5584C20.6555 21.4918 20.4632 21.4551 20.2687 21.4496C20.0334 21.4505 19.8015 21.3932 19.5938 21.2826C19.3861 21.172 19.209 21.0117 19.0783 20.816C18.962 20.6309 18.8946 20.4194 18.8823 20.2011C18.87 19.9829 18.9132 19.765 19.0079 19.568Z" fill="#0019FC"/>
<path d="M26.5888 31.2351C26.4795 30.9093 26.3197 30.6026 26.1152 30.3263C25.8616 30.077 25.57 29.8696 25.2512 29.7119C24.7445 29.4789 24.3044 29.1224 23.9712 28.6751C23.827 28.4309 23.7111 28.1711 23.6256 27.9007C23.5665 27.629 23.4337 27.3787 23.2416 27.1775C23.0123 27.0497 22.7553 26.9794 22.4928 26.9727C22.1959 26.9221 21.8922 26.9265 21.5968 26.9855C21.4176 27.0431 21.2576 27.1839 21.2512 27.3055C21.2465 27.3352 21.2444 27.3651 21.2448 27.3951C21.2409 27.5124 21.2216 27.6286 21.1872 27.7407C21.1001 27.9454 20.9446 28.1134 20.7473 28.2161C20.5501 28.3188 20.3232 28.3499 20.1056 28.3039C19.9447 28.2763 19.7878 28.229 19.6384 28.1631C19.5743 28.136 19.5079 28.1146 19.44 28.0991C18.9032 28.0376 18.3617 28.1667 17.9104 28.4639C17.7056 28.5599 17.1488 28.8095 16.5984 29.0591C16.5152 29.0975 16.4384 29.1359 16.3552 29.1743C17.7342 30.5789 19.4314 31.6303 21.3031 32.2397C23.1747 32.8491 25.1656 32.9985 27.1072 32.6751C27.0496 32.5023 26.9792 32.3167 26.9088 32.1055C26.8064 31.8111 26.7232 31.5615 26.6784 31.4591L26.5888 31.2351Z" fill="#0019FC"/>
<path d="M19.7408 10.9087C19.8816 11.0815 20.0224 11.1903 20.1248 11.1775C20.2379 11.1493 20.3444 11.0993 20.4384 11.0303C20.5571 10.9496 20.6836 10.881 20.816 10.8255C21.7568 10.4607 22.6912 11.1647 23.088 11.4655L24.1952 12.3103C24.2979 12.4026 24.4174 12.4743 24.5472 12.5215C24.5472 12.5215 24.5984 12.5279 24.6112 12.5279C24.592 12.5151 24.592 12.4255 24.592 12.3679C24.5668 12.2478 24.5679 12.1237 24.5951 12.0041C24.6224 11.8844 24.6753 11.7721 24.7501 11.6749C24.8248 11.5776 24.9198 11.4976 25.0284 11.4405C25.137 11.3834 25.2566 11.3504 25.3792 11.3439C25.6618 11.2991 25.9509 11.319 26.2247 11.4022C26.4986 11.4853 26.75 11.6295 26.96 11.8239C27.1949 12.0838 27.3658 12.395 27.4592 12.7327L27.504 12.8671C27.8517 13.696 28.301 14.4785 28.8416 15.1967C29.0976 15.5679 29.328 15.8623 29.5968 15.9263C29.8184 15.9599 30.0449 15.9379 30.256 15.8623C31.2733 15.6014 32.2718 15.2721 33.2448 14.8767L33.6672 14.7103C34.1344 14.5247 34.896 14.2303 35.4144 13.9807C33.7479 11.3631 31.149 9.47647 28.1439 8.70291C25.1388 7.92936 21.952 8.32663 19.2288 9.81429C19.2928 9.95509 19.3696 10.1215 19.4592 10.3263C19.5419 10.5256 19.6359 10.7201 19.7408 10.9087Z" fill="#0019FC"/>
<path d="M16.2591 17.2959C16.3297 17.2367 16.396 17.1725 16.4575 17.1039C16.4836 17.0624 16.503 17.0171 16.5151 16.9695C16.418 16.9618 16.3202 16.9727 16.2271 17.0015C15.8685 17.075 15.4976 17.0635 15.1442 16.9679C14.7908 16.8723 14.4647 16.6953 14.1919 16.4511C14.1407 16.3999 13.9039 16.2207 13.6991 16.0671C12.5869 18.8446 12.539 21.9349 13.5647 24.7455C14.1045 24.8158 14.6512 24.8136 15.1903 24.7391C15.5356 24.5047 15.8172 24.188 16.0095 23.8175C16.231 23.5439 16.3528 23.2031 16.3551 22.8511C16.276 22.569 16.1338 22.3086 15.9391 22.0895C15.7137 21.807 15.5325 21.492 15.4015 21.1551C15.3316 20.92 15.2907 20.6771 15.2799 20.4319C15.2754 20.21 15.2298 19.9909 15.1455 19.7855C14.6143 18.8383 15.6831 17.8335 16.2591 17.2959Z" fill="#0019FC"/>
</svg>
