<svg width="48" height="48" viewBox="0 0 48 48" fill="none" xmlns="http://www.w3.org/2000/svg">
<path d="M26.9344 18.7122C27.7575 18.6754 28.5347 18.3225 29.1041 17.727C29.6735 17.1315 29.9914 16.3393 29.9914 15.5154C29.9914 14.6915 29.6735 13.8993 29.1041 13.3038C28.5347 12.7083 27.7575 12.3554 26.9344 12.3186C26.8317 12.3184 26.7291 12.3248 26.6272 12.3378L13.4368 13.6178C12.9433 13.6668 12.4858 13.8978 12.1533 14.2657C11.8208 14.6337 11.6373 15.1123 11.6384 15.6082C11.6459 16.1039 11.8363 16.5793 12.173 16.9431C12.5096 17.3069 12.9689 17.5335 13.4624 17.5794L26.6656 18.6994C26.7552 18.7058 26.8448 18.7122 26.9344 18.7122Z" fill="#FF00C7"/>
<path d="M26.9343 11.4867H26.9727C27.645 11.1957 28.3788 11.0758 29.1087 11.1377C29.8386 11.1996 30.5418 11.4413 31.1554 11.8413C31.769 12.2414 32.274 12.7872 32.6252 13.43C32.9764 14.0728 33.1629 14.7926 33.1679 15.5251V16.2035C33.1696 16.6098 33.3322 16.9988 33.6201 17.2855C33.9079 17.5722 34.2977 17.7331 34.7039 17.7331H34.7103C35.1173 17.7286 35.506 17.5631 35.7914 17.2729C36.0768 16.9827 36.2357 16.5914 36.2335 16.1843L36.2271 15.8259C36.236 13.9217 35.5357 12.0824 34.2627 10.6662C32.9897 9.25005 31.2351 8.35846 29.3407 8.16513C27.9184 8.05485 26.4939 8.35055 25.2329 9.01785C23.972 9.68515 22.9263 10.6966 22.2175 11.9347L26.5439 11.5123C26.6731 11.4932 26.8037 11.4846 26.9343 11.4867Z" fill="#FF00C7"/>
<path d="M36.2719 23.2371C36.2704 22.8051 36.1838 22.3776 36.017 21.979C35.8502 21.5805 35.6064 21.2187 35.2998 20.9144C34.9931 20.6101 34.6294 20.3692 34.2296 20.2055C33.8297 20.0418 33.4016 19.9585 32.9695 19.9603L28.7583 19.9859H28.7359C28.0661 19.9843 27.4053 19.8312 26.8031 19.5379C26.7455 19.539 26.6878 19.5369 26.6303 19.5315L21.2479 19.072L21.3631 37.728C21.3619 38.0094 21.4173 38.2882 21.5262 38.5477C21.635 38.8072 21.7951 39.0421 21.9967 39.2384C22.3963 39.6361 22.937 39.8593 23.5007 39.8592H23.5135L34.2399 39.7952C34.8067 39.788 35.3478 39.5574 35.7457 39.1536C36.1435 38.7498 36.3659 38.2053 36.3647 37.6384L36.2719 23.2371ZM24.5209 25.1168L32.7404 25.0682C32.8677 25.0682 32.9898 25.1188 33.0798 25.2088C33.1698 25.2988 33.2204 25.4209 33.2204 25.5482C33.2204 25.6755 33.1698 25.7976 33.0798 25.8876C32.9898 25.9776 32.8677 26.0282 32.7404 26.0282L24.5209 26.0768H24.5177C24.3904 26.0768 24.2683 26.0263 24.1783 25.9362C24.0883 25.8462 24.0377 25.7241 24.0377 25.5968C24.0377 25.4695 24.0883 25.3474 24.1783 25.2574C24.2683 25.1674 24.3904 25.1168 24.5177 25.1168H24.5209ZM24.5478 30.1127C24.4205 30.1127 24.2984 30.0621 24.2084 29.9721C24.1183 29.8821 24.0678 29.76 24.0678 29.6327C24.0678 29.5054 24.1183 29.3833 24.2084 29.2933C24.2984 29.2032 24.4205 29.1527 24.5478 29.1527L32.7679 29.1034C32.8952 29.1034 33.0173 29.154 33.1073 29.244C33.1974 29.334 33.2479 29.4561 33.2479 29.5834C33.2479 29.7107 33.1974 29.8328 33.1073 29.9228C33.0173 30.0128 32.8952 30.0634 32.7679 30.0634L24.549 30.1127H24.5478ZM31.7158 36.4531H31.703C31.2031 36.4548 30.723 36.2579 30.3683 35.9056C30.0137 35.5534 29.8135 35.0746 29.8118 34.5747C29.8101 34.0749 30.007 33.5948 30.3593 33.2401C30.7116 32.8854 31.1903 32.6852 31.6902 32.6835H31.703C32.2028 32.6818 32.6829 32.8788 33.0376 33.2311C33.3923 33.5833 33.5925 34.0621 33.5942 34.5619C33.5959 35.0618 33.3989 35.5419 33.0466 35.8966C32.6944 36.2512 32.2156 36.4514 31.7158 36.4531Z" fill="#FF00C7"/>
</svg>
