<svg width="19" height="19" viewBox="0 0 19 19" fill="none" xmlns="http://www.w3.org/2000/svg">
<path fill-rule="evenodd" clip-rule="evenodd" d="M1.75 8.07629C1.75 4.55548 4.60418 1.70129 8.125 1.70129C11.6458 1.70129 14.5 4.55548 14.5 8.07629C14.5 11.5971 11.6458 14.4513 8.125 14.4513C4.60418 14.4513 1.75 11.5971 1.75 8.07629ZM8.125 0.201294C3.77576 0.201294 0.25 3.72705 0.25 8.07629C0.25 12.4255 3.77576 15.9513 8.125 15.9513C12.4742 15.9513 16 12.4255 16 8.07629C16 3.72705 12.4742 0.201294 8.125 0.201294ZM17.671 18.1526C17.9639 18.4455 18.4387 18.4455 18.7316 18.1526C19.0245 17.8597 19.0245 17.3849 18.7316 17.092L15.0193 13.3797C14.7264 13.0868 14.2515 13.0868 13.9587 13.3797C13.6658 13.6725 13.6658 14.1474 13.9587 14.4403L17.671 18.1526Z" fill="#242B36"/>
</svg>
