<svg width="26" height="32" viewBox="0 0 26 32" fill="none" xmlns="http://www.w3.org/2000/svg">
<path d="M24.0912 0.159912H1.90882C1.49317 0.160589 1.09474 0.326006 0.800825 0.619916C0.506915 0.913827 0.341497 1.31226 0.34082 1.72791V30.2719C0.341497 30.6876 0.506915 31.086 0.800825 31.3799C1.09474 31.6738 1.49317 31.8392 1.90882 31.8399H24.0912C24.5069 31.8392 24.9053 31.6738 25.1992 31.3799C25.4931 31.086 25.6585 30.6876 25.6592 30.2719V1.72791C25.6585 1.31226 25.4931 0.913827 25.1992 0.619916C24.9053 0.326006 24.5069 0.160589 24.0912 0.159912ZM13.608 4.93431C13.614 4.9244 13.6183 4.9136 13.6208 4.90231C13.8192 4.92151 14.0176 4.94711 14.216 4.97911C15.2136 5.15177 16.1639 5.53211 17.0051 6.0955C17.8463 6.65889 18.5598 7.39275 19.0992 8.24951C19.0288 8.32631 18.9392 8.41591 18.8432 8.52471C18.7472 8.63351 18.5808 8.81271 18.4784 8.91511C18.4208 8.89591 18.3696 8.88311 18.3184 8.87031C18.0829 8.77431 17.8302 8.72762 17.5759 8.73312C17.3216 8.73863 17.0712 8.79621 16.84 8.90231C16.7021 8.99812 16.5867 9.12268 16.5016 9.26743C16.4165 9.41217 16.3639 9.57364 16.3472 9.74071C16.333 9.827 16.3072 9.91097 16.2704 9.99031C16.2143 10.0288 16.1458 10.0448 16.0784 10.0351C16.0723 9.89615 16.0788 9.75692 16.0976 9.61911C16.136 9.25431 16.2128 8.57591 15.5792 8.32631C15.4308 8.27304 15.2757 8.24072 15.1184 8.23031H15.0672V8.20471C15.0672 8.19191 15.0736 8.11511 15.0736 8.10231C15.0736 7.83351 15.0736 7.11671 14.4976 6.85431C14.2084 6.75372 13.8926 6.76054 13.608 6.87351C13.5755 6.87984 13.5434 6.88839 13.512 6.89911C13.5248 6.82871 13.5504 6.75191 13.5632 6.69431C13.6156 6.53657 13.65 6.3734 13.6656 6.20791C13.701 5.99876 13.6625 5.78381 13.5568 5.59991C13.5225 5.53671 13.477 5.48032 13.4224 5.43351C13.48 5.27351 13.5568 5.06871 13.608 4.93431ZM12.6032 4.88311C12.3664 5.51031 12.3152 5.75991 12.584 5.98391L12.6864 6.06711C12.6992 6.07351 12.7056 6.07351 12.712 6.07991V6.12471C12.6968 6.23092 12.6732 6.33577 12.6416 6.43831C12.5527 6.62998 12.5182 6.84241 12.5419 7.05236C12.5656 7.26231 12.6466 7.4617 12.776 7.62871C12.9221 7.7605 13.1037 7.84651 13.2983 7.87609C13.4928 7.90566 13.6917 7.87751 13.8704 7.79511C13.9392 7.77203 14.0099 7.7549 14.0816 7.74391C14.1071 7.86375 14.1179 7.98626 14.1136 8.10871C14.0795 8.29503 14.095 8.48704 14.1584 8.66551C14.2363 8.82848 14.3603 8.96504 14.515 9.05831C14.6697 9.15158 14.8483 9.19747 15.0288 9.19031C15.0739 9.1911 15.1188 9.19538 15.1632 9.20311C15.166 9.30801 15.1596 9.41294 15.144 9.51671C15.0592 9.89289 15.1161 10.2872 15.304 10.6239C15.3778 10.7261 15.4725 10.8114 15.5817 10.8743C15.6909 10.9372 15.8122 10.9762 15.9376 10.9887C16.274 11.0217 16.6109 10.9307 16.8848 10.7327C17.1006 10.5241 17.2402 10.2492 17.2816 9.95191C17.3024 9.87854 17.3174 9.80364 17.3264 9.72791C17.5749 9.66977 17.8357 9.69449 18.0688 9.79831C18.1968 9.83031 18.3248 9.86871 18.4656 9.89431C18.8304 9.95191 19.1056 9.66391 19.5536 9.17751C19.56 9.16471 19.5728 9.15831 19.5792 9.14551C19.8309 9.69589 20.0094 10.2768 20.1104 10.8735C20.2783 11.861 20.2387 12.8726 19.9943 13.844C19.7499 14.8153 19.3059 15.7252 18.6907 16.5156C18.0754 17.306 17.3024 17.9597 16.4207 18.4351C15.5391 18.9105 14.5681 19.1971 13.5696 19.2767C13.6387 19.1591 13.6823 19.0283 13.6976 18.8927C13.7156 18.7942 13.7434 18.6977 13.7808 18.6047C13.9085 18.3468 14.0771 18.1112 14.28 17.9071L14.3824 17.7919C14.5488 17.6127 14.7152 17.4335 14.8752 17.2543C14.9712 17.1519 15.0288 17.0943 15.0288 17.0879C15.0996 17.1063 15.1682 17.1321 15.2336 17.1647C15.382 17.2522 15.551 17.2983 15.7232 17.2983C15.8954 17.2983 16.0645 17.2522 16.2128 17.1647C16.3147 17.0961 16.3859 16.9905 16.4112 16.8703C16.4362 16.5838 16.3923 16.2955 16.2832 16.0294C16.1741 15.7633 16.0029 15.5272 15.784 15.3407C15.2157 14.6012 14.3785 14.1159 13.4544 13.9903C13.3242 13.9849 13.1937 13.9892 13.064 14.0031C12.9236 14.0209 12.7814 14.0188 12.6416 13.9967C12.4961 13.9481 12.3582 13.8791 12.232 13.7919C11.9831 13.6177 11.6992 13.4998 11.4 13.4463C10.8861 13.4323 10.385 13.6077 9.99202 13.9391L9.90882 13.9903C9.59522 14.2079 9.32642 14.2911 9.16642 14.2207C9.13421 14.211 9.1039 14.1959 9.07682 14.1759C8.90218 14.0627 8.6957 14.0089 8.48802 14.0223C8.26268 14.0625 8.06088 14.1864 7.92317 14.3692C7.78546 14.5521 7.72203 14.7802 7.74562 15.0079C7.74564 15.1106 7.75205 15.2132 7.76482 15.3151C7.77005 15.3799 7.78076 15.4441 7.79682 15.5071C7.59852 15.7826 7.37574 16.0397 7.13122 16.2751C6.49806 15.3926 6.07552 14.3767 5.89602 13.3055C5.87682 13.1775 5.85762 13.0431 5.84482 12.9151C6.28552 13.1264 6.75994 13.2586 7.24642 13.3055C7.37797 13.3094 7.50822 13.2784 7.62402 13.2159C7.79305 13.0995 7.92473 12.9366 8.0031 12.7469C8.08147 12.5572 8.10319 12.3489 8.06562 12.1471C8.06574 12.0508 8.05932 11.9546 8.04642 11.8591C8.04642 11.8591 8.15522 11.8143 8.51362 11.9167L8.59042 11.9359C8.75769 12.0076 8.94088 12.0341 9.12162 12.0127C9.30792 11.9777 9.47943 11.8876 9.61404 11.7541C9.74865 11.6206 9.84018 11.4499 9.87682 11.2639C9.89699 11.2029 9.92049 11.1431 9.94722 11.0847C10.072 11.1121 10.1941 11.1507 10.312 11.1999C10.6862 11.3885 11.1163 11.434 11.5216 11.3279C11.6444 11.2795 11.7553 11.2053 11.847 11.1104C11.9386 11.0154 12.0088 10.9019 12.0528 10.7775C12.1197 10.6134 12.1525 10.4375 12.1492 10.2603C12.1459 10.0832 12.1066 9.90858 12.0336 9.74711C11.8804 9.4591 11.628 9.2363 11.3232 9.11991C11.242 9.07935 11.1629 9.03448 11.0864 8.98551C11.0288 8.79351 11.1504 8.55671 11.3488 8.19831C11.4256 8.06391 11.5088 7.92311 11.5728 7.78231C11.8672 7.11671 11.4064 5.89431 11.0544 5.14551C11.5599 5.0033 12.0791 4.91534 12.6032 4.88311ZM8.71842 15.1999C8.71703 15.1549 8.71276 15.11 8.70562 15.0655C8.73762 15.0847 8.76322 15.0975 8.78882 15.1103C9.06798 15.2061 9.3674 15.227 9.65716 15.1709C9.94692 15.1147 10.2169 14.9835 10.44 14.7903L10.5168 14.7391C10.7324 14.5573 10.9935 14.4378 11.272 14.3935C11.4366 14.4401 11.5923 14.5136 11.7328 14.6111C11.9378 14.7483 12.1621 14.854 12.3984 14.9247C12.6361 14.9746 12.88 14.9876 13.1216 14.9631C13.2194 14.9526 13.3177 14.9483 13.416 14.9503C14.0851 15.0817 14.6822 15.4555 15.0928 15.9999C15.144 16.0575 15.1888 16.1023 15.2272 16.1535C15.1326 16.134 15.0356 16.1275 14.9392 16.1343C14.6308 16.1979 14.3544 16.3678 14.1584 16.6143C13.9984 16.7935 13.8384 16.9663 13.6464 17.1775L13.5632 17.2735C13.2837 17.5557 13.0562 17.885 12.8912 18.2463C12.8253 18.409 12.778 18.5786 12.7504 18.7519C12.7376 18.8735 12.5264 19.0719 12.2768 19.2575C12.1104 19.2447 11.9504 19.2191 11.784 19.1935C10.2332 18.9339 8.81255 18.1662 7.74562 17.0111C8.14333 16.6629 8.47316 16.2442 8.71842 15.7759C8.75065 15.5853 8.75065 15.3906 8.71842 15.1999ZM7.90562 6.99511C8.5497 6.34627 9.31229 5.82702 10.152 5.46551C10.4897 6.05051 10.6767 6.71031 10.696 7.38551C10.6427 7.50183 10.5828 7.61508 10.5168 7.72471C10.3582 7.94169 10.2447 8.18831 10.1831 8.44996C10.1215 8.71161 10.1132 8.98296 10.1584 9.24791C10.2205 9.41407 10.3178 9.56478 10.4438 9.68964C10.5698 9.81451 10.7213 9.91054 10.888 9.97111C10.9941 10.015 11.09 10.0804 11.1696 10.1631C11.1974 10.2514 11.1929 10.3467 11.1568 10.4319C10.9793 10.419 10.8058 10.3734 10.6448 10.2975C10.2544 10.1567 9.60802 9.91351 9.19202 10.4831C9.09615 10.6246 9.02275 10.78 8.97442 10.9439C8.96162 10.9695 8.94882 11.0079 8.93602 11.0399C8.92039 11.0387 8.90516 11.0343 8.89122 11.0271C8.85282 11.0143 8.80802 11.0015 8.76962 10.9887C8.53013 10.881 8.26392 10.8472 8.0051 10.8916C7.74628 10.9361 7.50662 11.0568 7.31682 11.2383C7.14019 11.5135 7.06546 11.8418 7.10562 12.1663V12.3327C6.65724 12.2111 6.22037 12.0505 5.80002 11.8527C5.84977 10.0227 6.60407 8.28252 7.90562 6.99511ZM21.4224 27.3759H4.58146C4.45416 27.3759 4.33207 27.3253 4.24205 27.2353C4.15203 27.1453 4.10146 27.0232 4.10146 26.8959C4.10146 26.7686 4.15203 26.6465 4.24205 26.5565C4.33207 26.4665 4.45416 26.4159 4.58146 26.4159H21.4224C21.5497 26.4159 21.6718 26.4665 21.7618 26.5565C21.8519 26.6465 21.9024 26.7686 21.9024 26.8959C21.9024 27.0232 21.8519 27.1453 21.7618 27.2353C21.6718 27.3253 21.5497 27.3759 21.4224 27.3759ZM21.4224 22.7359H4.58146C4.45416 22.7359 4.33207 22.6853 4.24205 22.5953C4.15203 22.5053 4.10146 22.3832 4.10146 22.2559C4.10146 22.1286 4.15203 22.0065 4.24205 21.9165C4.33207 21.8265 4.45416 21.7759 4.58146 21.7759H21.4224C21.5497 21.7759 21.6718 21.8265 21.7618 21.9165C21.8519 22.0065 21.9024 22.1286 21.9024 22.2559C21.9024 22.3832 21.8519 22.5053 21.7618 22.5953C21.6718 22.6853 21.5497 22.7359 21.4224 22.7359Z" fill="#F15C2F"/>
</svg>
