<svg width="24" height="24" viewBox="0 0 24 24" fill="none" xmlns="http://www.w3.org/2000/svg">
<path d="M13.9472 0.878834C13.6688 0.746034 13.3408 0.781234 13.1008 0.974834L5.3184 7.20043H1.6C0.7184 7.20043 0 7.91883 0 8.80043V15.2004C0 16.0836 0.7184 16.8004 1.6 16.8004H5.3184L13.0992 23.026C13.2448 23.1412 13.4224 23.2004 13.6 23.2004C13.7184 23.2004 13.8368 23.1732 13.9472 23.1204C14.224 22.9876 14.4 22.7076 14.4 22.4004V1.60043C14.4 1.29323 14.224 1.01323 13.9472 0.878834Z" fill="#92989E"/>
<path d="M18.4495 6.34283C18.1343 6.03243 17.6287 6.03723 17.3183 6.34923C17.0079 6.66443 17.0111 7.17003 17.3247 7.48203C18.5343 8.67563 19.1999 10.2804 19.1999 12.0004C19.1999 13.7204 18.5343 15.3252 17.3247 16.5188C17.0111 16.8276 17.0079 17.3348 17.3183 17.65C17.4751 17.8084 17.6815 17.8868 17.8863 17.8868C18.0895 17.8868 18.2927 17.81 18.4495 17.6548C19.9663 16.162 20.7999 14.1524 20.7999 12.0004C20.7999 9.84843 19.9663 7.83883 18.4495 6.34283Z" fill="#92989E"/>
<path d="M20.7072 4.08847C20.392 3.77647 19.8864 3.77967 19.5744 4.09327C19.264 4.40687 19.2672 4.91407 19.5792 5.22447C21.3984 7.02767 22.4 9.43407 22.4 12.0005C22.4 14.5669 21.3984 16.9717 19.5792 18.7749C19.2672 19.0869 19.264 19.5941 19.5744 19.9077C19.7328 20.0645 19.9376 20.1429 20.1424 20.1429C20.3456 20.1429 20.5504 20.0661 20.7072 19.9109C22.832 17.8069 24 14.9973 24 12.0005C24 9.00367 22.832 6.19407 20.7072 4.08847Z" fill="#92989E"/>
</svg>
