<svg width="142" height="26" viewBox="0 0 142 26" fill="none" xmlns="http://www.w3.org/2000/svg">
<path d="M2.584 3.912L0.216 3.464V1.224H5.432C5.77333 1.224 6.43467 1.20267 7.416 1.16C8.65333 1.07467 9.77333 1.032 10.776 1.032C13.08 1.032 14.8933 1.30933 16.216 1.864C17.5387 2.41867 18.4773 3.21867 19.032 4.264C19.5867 5.288 19.864 6.58933 19.864 8.168C19.864 10.8987 19.032 13.0213 17.368 14.536C15.704 16.0507 13.336 16.808 10.264 16.808C9.304 16.808 8.568 16.776 8.056 16.712V22.536L12.28 22.888V25H0.12V22.888L2.584 22.568V3.912ZM8.024 14.504C8.45067 14.6107 9.15467 14.664 10.136 14.664C12.9093 14.664 14.296 12.5413 14.296 8.296C14.296 6.52533 13.944 5.23467 13.24 4.424C12.5573 3.592 11.5227 3.176 10.136 3.176C9.53867 3.176 9.06933 3.208 8.728 3.272C8.38667 3.31467 8.152 3.34667 8.024 3.368V14.504ZM17.463 22.888L19.927 22.568V3.88L17.591 3.432V1.224H22.519C22.9243 1.224 23.3617 1.21333 23.831 1.192C24.3217 1.17067 24.695 1.14933 24.951 1.128C26.103 1.04266 27.0843 0.999998 27.895 0.999998C30.1777 0.999998 31.991 1.224 33.335 1.672C34.679 2.09867 35.6497 2.78133 36.247 3.72C36.8657 4.63733 37.175 5.85333 37.175 7.368C37.175 8.81867 36.791 10.1733 36.023 11.432C35.255 12.6907 34.1243 13.5547 32.631 14.024C33.6123 14.3867 34.4337 15.0693 35.095 16.072C35.7777 17.0533 36.4817 18.312 37.207 19.848C37.6337 20.744 37.975 21.416 38.231 21.864C38.487 22.2907 38.7537 22.536 39.031 22.6L39.959 22.888V25H33.879C33.559 25 33.2283 24.6587 32.887 23.976C32.5457 23.2933 32.1083 22.2267 31.575 20.776C30.9137 19.0053 30.3377 17.64 29.847 16.68C29.3777 15.6987 28.855 15.1013 28.279 14.888H25.399V22.568L28.247 22.888V25H17.463V22.888ZM27.863 12.808C28.9723 12.808 29.8363 12.3813 30.455 11.528C31.0737 10.6533 31.383 9.34133 31.383 7.592C31.383 6.056 31.0737 4.936 30.455 4.232C29.8577 3.50667 28.8443 3.144 27.415 3.144C26.647 3.144 25.975 3.19733 25.399 3.304V12.712C25.6763 12.776 26.135 12.808 26.775 12.808C27.415 12.808 27.7777 12.808 27.863 12.808ZM47.2053 25.352C43.6213 25.352 40.9653 24.2747 39.2373 22.12C37.5093 19.944 36.6453 16.9573 36.6453 13.16C36.6453 10.7067 37.0933 8.56267 37.9893 6.728C38.9066 4.872 40.1866 3.44267 41.8293 2.44C43.4719 1.43733 45.3919 0.935999 47.5893 0.935999C51.2586 0.935999 53.9573 1.96 55.6853 4.008C57.4346 6.03467 58.3093 8.936 58.3093 12.712C58.3093 15.208 57.8506 17.416 56.9333 19.336C56.0159 21.2347 54.7146 22.7173 53.0293 23.784C51.3653 24.8293 49.4239 25.352 47.2053 25.352ZM47.4933 3.048C45.9573 3.048 44.7626 3.89067 43.9093 5.576C43.0773 7.26133 42.6613 9.77867 42.6613 13.128C42.6613 16.5413 43.0773 19.08 43.9093 20.744C44.7413 22.3867 45.9253 23.208 47.4613 23.208C48.9759 23.208 50.1493 22.312 50.9813 20.52C51.8346 18.7067 52.2613 16.1147 52.2613 12.744C52.2613 9.33067 51.8559 6.86667 51.0453 5.352C50.2346 3.816 49.0506 3.048 47.4933 3.048ZM58.8035 3.88L56.3075 3.464V1.224H64.3395L73.1715 14.856L74.9635 18.696V3.88L72.2435 3.464V1.224H80.4355V3.464L78.0035 3.88V25H73.2995L63.9235 10.376L61.8115 6.152V22.536L65.2035 22.888V25H56.3075V22.888L58.8035 22.536V3.88ZM80.4895 3.912L77.9935 3.464V1.224H95.4975L95.9135 6.888H93.3855L92.2655 3.656L85.9615 3.336V11.656L89.8655 11.56L90.4415 8.936H92.6495V16.968H90.4415L89.8975 14.184L85.9615 14.088V22.792L92.9695 22.344L94.9215 18.216L97.6415 18.984L96.8735 25H78.0255V22.888L80.4895 22.568V3.912ZM93.3927 1.224H103.601V3.464L100.945 3.912L104.753 18.024L105.361 21L105.905 18.024L109.169 6.632L108.241 3.912L106.225 3.464V1.224H116.913V3.464L113.873 3.912L117.681 18.024L118.385 21.256L118.929 18.024L122.353 3.912L119.633 3.464V1.224H127.409V3.464L125.425 3.912L119.505 25.16H114.609L110.481 10.92L106.577 25.16H101.745L95.2488 3.912L93.3927 3.464V1.224ZM132.476 25.352C131.302 25.352 130.214 25.256 129.212 25.064C128.23 24.872 127.196 24.616 126.108 24.296C125.404 24.0827 124.892 23.9653 124.572 23.944L124.86 17.96H127.836L128.636 22.056C128.87 22.3333 129.297 22.5787 129.916 22.792C130.556 23.0053 131.313 23.112 132.188 23.112C133.489 23.112 134.46 22.824 135.1 22.248C135.761 21.672 136.092 20.8827 136.092 19.88C136.092 19.176 135.878 18.568 135.452 18.056C135.046 17.5227 134.47 17.0427 133.724 16.616C132.998 16.168 131.996 15.656 130.716 15.08C129.03 14.312 127.601 13.3413 126.428 12.168C125.276 10.9733 124.7 9.40533 124.7 7.464C124.7 6.26933 125.009 5.18133 125.628 4.2C126.246 3.21867 127.185 2.42933 128.444 1.832C129.702 1.23467 131.27 0.935999 133.148 0.935999C134.278 0.935999 135.26 1.01067 136.092 1.16C136.945 1.30933 137.852 1.512 138.812 1.768C139.324 1.93867 139.718 2.03467 139.996 2.056L139.804 7.752H136.892L136.156 3.816C136.006 3.624 135.665 3.45333 135.132 3.304C134.62 3.13333 134.044 3.048 133.404 3.048C132.23 3.048 131.345 3.32533 130.748 3.88C130.172 4.43467 129.884 5.14933 129.884 6.024C129.884 6.792 130.129 7.464 130.62 8.04C131.11 8.616 131.697 9.10667 132.38 9.512C133.084 9.896 134.15 10.44 135.58 11.144C136.71 11.6987 137.692 12.264 138.524 12.84C139.377 13.3947 140.102 14.12 140.7 15.016C141.297 15.912 141.596 16.9573 141.596 18.152C141.596 19.3253 141.308 20.456 140.732 21.544C140.177 22.632 139.217 23.5387 137.852 24.264C136.486 24.9893 134.694 25.352 132.476 25.352Z" fill="#852222"/>
</svg>
